<?xml version="1.0" ?><!-- Uploaded to: SVG Repo, www.svgrepo.com, Generator: SVG Repo Mixer Tools -->
<svg width="800px" height="800px" viewBox="0 0 24 24" fill="none" xmlns="http://www.w3.org/2000/svg"><circle cx="10.5" cy="16.5" fill="#000000" r="0.5"/><circle cx="10.5" cy="19.5" fill="#94A3B8" r="0.5"/><path d="M16.7 8C16.7 7.6134 16.3866 7.3 16 7.3C15.6134 7.3 15.3 7.6134 15.3 8H16.7ZM8.7 8C8.7 7.6134 8.3866 7.3 8 7.3C7.6134 7.3 7.3 7.6134 7.3 8H8.7ZM3.3 21C3.3 21.3866 3.6134 21.7 4 21.7C4.3866 21.7 4.7 21.3866 4.7 21H3.3ZM19.3 21C19.3 21.3866 19.6134 21.7 20 21.7C20.3866 21.7 20.7 21.3866 20.7 21H19.3ZM7.3 21C7.3 21.3866 7.6134 21.7 8 21.7C8.3866 21.7 8.7 21.3866 8.7 21H7.3ZM8.7 14.5C8.7 14.1134 8.3866 13.8 8 13.8C7.6134 13.8 7.3 14.1134 7.3 14.5H8.7ZM7.74372 8.39039C8.08582 8.57046 8.50913 8.4391 8.6892 8.097C8.86927 7.7549 8.73791 7.33159 8.39581 7.15152L7.74372 8.39039ZM9.61444 4.85393C9.95492 5.03706 10.3794 4.90951 10.5625 4.56903C10.7456 4.22856 10.6181 3.80409 10.2776 3.62096L9.61444 4.85393ZM15.6495 7.12651C15.3148 7.32009 15.2005 7.7483 15.3941 8.08294C15.5877 8.41759 16.0159 8.53194 16.3505 8.33836L15.6495 7.12651ZM13.6495 3.66164C13.3148 3.85522 13.2005 4.28343 13.3941 4.61807C13.5877 4.95272 14.0159 5.06707 14.3505 4.87349L13.6495 3.66164ZM13.3 4C13.3 4.3866 13.6134 4.7 14 4.7C14.3866 4.7 14.7 4.3866 14.7 4H13.3ZM10.2676 5L10.9023 4.70492L10.8891 4.67656L10.8735 4.64949L10.2676 5ZM10.808 6.44644C11.158 6.61055 11.5748 6.45983 11.7389 6.10979C11.903 5.75975 11.7523 5.34295 11.4023 5.17884L10.808 6.44644ZM8 6.8C7.6134 6.8 7.3 7.1134 7.3 7.5C7.3 7.8866 7.6134 8.2 8 8.2V6.8ZM10 8.2C10.3866 8.2 10.7 7.8866 10.7 7.5C10.7 7.1134 10.3866 6.8 10 6.8V8.2ZM15.3 21C15.3 21.3866 15.6134 21.7 16 21.7C16.3866 21.7 16.7 21.3866 16.7 21H15.3ZM16.7 18.3333C16.7 17.9467 16.3866 17.6333 16 17.6333C15.6134 17.6333 15.3 17.9467 15.3 18.3333H16.7ZM15.3 8C15.3 9.82254 13.8225 11.3 12 11.3V12.7C14.5957 12.7 16.7 10.5957 16.7 8H15.3ZM12 11.3C10.1775 11.3 8.7 9.82254 8.7 8H7.3C7.3 10.5957 9.40426 12.7 12 12.7V11.3ZM4.7 21V19.5H3.3V21H4.7ZM9.5 14.7H14.5V13.3H9.5V14.7ZM19.3 19.5V21H20.7V19.5H19.3ZM14.5 14.7C17.151 14.7 19.3 16.849 19.3 19.5H20.7C20.7 16.0758 17.9242 13.3 14.5 13.3V14.7ZM4.7 19.5C4.7 16.849 6.84903 14.7 9.5 14.7V13.3C6.07583 13.3 3.3 16.0758 3.3 19.5H4.7ZM8.7 21V14.5H7.3V21H8.7ZM7.7 6C7.7 5.28203 8.28203 4.7 9 4.7V3.3C7.50883 3.3 6.3 4.50883 6.3 6H7.7ZM8.39581 7.15152C7.9806 6.93297 7.7 6.49869 7.7 6H6.3C6.3 7.03876 6.8868 7.93934 7.74372 8.39039L8.39581 7.15152ZM9 4.7C9.22366 4.7 9.43219 4.7559 9.61444 4.85393L10.2776 3.62096C9.89654 3.416 9.46078 3.3 9 3.3V4.7ZM15 4.7C15.718 4.7 16.3 5.28203 16.3 6H17.7C17.7 4.50883 16.4912 3.3 15 3.3V4.7ZM16.3 6C16.3 6.4803 16.0399 6.90068 15.6495 7.12651L16.3505 8.33836C17.1557 7.87257 17.7 7.00026 17.7 6H16.3ZM14.3505 4.87349C14.541 4.76329 14.7621 4.7 15 4.7V3.3C14.5094 3.3 14.0473 3.4315 13.6495 3.66164L14.3505 4.87349ZM10.7 4C10.7 3.28203 11.282 2.7 12 2.7V1.3C10.5088 1.3 9.3 2.50883 9.3 4H10.7ZM12 2.7C12.718 2.7 13.3 3.28203 13.3 4H14.7C14.7 2.50883 13.4912 1.3 12 1.3V2.7ZM10.8735 4.64949C10.7633 4.45899 10.7 4.23795 10.7 4H9.3C9.3 4.49062 9.4315 4.95266 9.66164 5.35051L10.8735 4.64949ZM9.6328 5.29508C9.72169 5.48629 10.0531 6.09253 10.808 6.44644L11.4023 5.17884C11.0654 5.02089 10.9215 4.74617 10.9023 4.70492L9.6328 5.29508ZM8 8.2H10V6.8H8V8.2ZM16.7 21V18.3333H15.3V21H16.7Z" fill="#94A3B8"/></svg>