<?xml version="1.0" encoding="iso-8859-1"?>
<!-- Uploaded to: SVG Repo, www.svgrepo.com, Generator: SVG Repo Mixer Tools -->
<!DOCTYPE svg PUBLIC "-//W3C//DTD SVG 1.1//EN" "http://www.w3.org/Graphics/SVG/1.1/DTD/svg11.dtd">
<svg fill="#94A3B8" height="800px" width="800px" version="1.1" id="Capa_1" xmlns="http://www.w3.org/2000/svg" xmlns:xlink="http://www.w3.org/1999/xlink" 
	 viewBox="0 0 442 442" xml:space="preserve">
<g>
	<path d="M312,160.829H130c-5.523,0-10,4.478-10,10v150c0,5.522,4.477,10,10,10h182c5.522,0,10-4.478,10-10v-30
		c0-5.522-4.478-10-10-10s-10,4.478-10,10v20h-40.667v-80H302v25.889c0,5.522,4.478,10,10,10s10-4.478,10-10v-85.889
		C322,165.307,317.522,160.829,312,160.829z M241.333,180.829v30h-40.667v-30H241.333z M180.667,180.829v30H140v-30H180.667z
		 M140,230.829h40.667v80H140V230.829z M241.333,310.829h-40.667v-80h40.667V310.829z M261.333,210.829v-30H302v30H261.333z"/>
	<path d="M381.95,79.002c-0.024-0.243-0.066-0.479-0.107-0.717c-0.015-0.084-0.022-0.17-0.039-0.254
		c-0.057-0.286-0.131-0.566-0.212-0.843c-0.01-0.034-0.016-0.068-0.026-0.102c-0.086-0.281-0.187-0.556-0.296-0.826
		c-0.012-0.031-0.021-0.063-0.034-0.093c-0.106-0.255-0.226-0.501-0.352-0.745c-0.024-0.046-0.043-0.095-0.068-0.141
		c-0.117-0.219-0.248-0.428-0.381-0.637c-0.043-0.068-0.08-0.139-0.125-0.206c-0.125-0.187-0.263-0.363-0.4-0.54
		c-0.063-0.082-0.119-0.168-0.185-0.248c-0.151-0.183-0.314-0.354-0.477-0.526c-0.061-0.064-0.115-0.133-0.177-0.196l-70-70
		c-0.063-0.063-0.132-0.117-0.196-0.177c-0.172-0.163-0.343-0.326-0.526-0.477c-0.08-0.065-0.166-0.122-0.247-0.185
		c-0.177-0.137-0.354-0.275-0.54-0.4c-0.067-0.044-0.138-0.082-0.205-0.125c-0.209-0.133-0.418-0.264-0.637-0.381
		c-0.046-0.024-0.095-0.044-0.141-0.068c-0.243-0.126-0.49-0.246-0.745-0.352c-0.031-0.013-0.063-0.021-0.093-0.034
		c-0.27-0.109-0.545-0.21-0.826-0.296c-0.034-0.01-0.068-0.016-0.102-0.026c-0.277-0.081-0.557-0.155-0.843-0.212
		c-0.084-0.017-0.17-0.024-0.254-0.039c-0.237-0.041-0.474-0.083-0.716-0.107C302.668,0.017,302.335,0,302,0H70
		c-5.523,0-10,4.478-10,10v422c0,5.522,4.477,10,10,10h302c5.522,0,10-4.478,10-10V80C382,79.665,381.983,79.332,381.95,79.002z
		 M312,34.143L347.857,70H312V34.143z M80,422V20h212v60c0,5.522,4.478,10,10,10h60v332H80z"/>
	<path d="M130,130.829h91c5.522,0,10-4.478,10-10s-4.478-10-10-10h-91c-5.523,0-10,4.478-10,10S124.477,130.829,130,130.829z"/>
	<path d="M312,362h-91c-5.523,0-10,4.478-10,10s4.477,10,10,10h91c5.522,0,10-4.478,10-10S317.522,362,312,362z"/>
</g>
</svg>